<svg width="574" height="895" viewBox="0 0 574 895" fill="none" xmlns="http://www.w3.org/2000/svg">
<g clip-path="url(#clip0_1_38)">
<mask id="mask0_1_38" style="mask-type:alpha" maskUnits="userSpaceOnUse" x="0" y="-1" width="590" height="896">
<path d="M590 -0.00439453H0V894.996H590V-0.00439453Z" fill="#C4C4C4"/>
</mask>
<g mask="url(#mask0_1_38)">
<path d="M590 -0.0043869H294.934V298.329H590V-0.0043869Z" fill="#FF7549"/>
<path opacity="0.72" d="M294.934 -0.0043869L589.999 298.329H294.934V-0.0043869Z" fill="white"/>
<path d="M294.934 298.329V596.662H-0.0654907L294.934 298.329Z" fill="#FF7549"/>
<path d="M590 596.662H294.934V894.996H590V596.662Z" fill="#FF7549"/>
<mask id="mask1_1_38" style="mask-type:alpha" maskUnits="userSpaceOnUse" x="294" y="596" width="296" height="299">
<path d="M590 596.662H294.934V894.996H590V596.662Z" fill="#FF7549"/>
</mask>
<g mask="url(#mask1_1_38)">
<path d="M630.633 596.662C816.034 596.662 966.331 748.658 966.331 936.154C966.331 1123.65 816.034 1275.65 630.633 1275.65C445.232 1275.65 294.935 1123.65 294.935 936.154C294.935 748.658 445.232 596.662 630.633 596.662Z" fill="white" fill-opacity="0.72"/>
</g>
<path d="M590 298.329H294.934V596.662H590V298.329Z" fill="#233B99"/>
<path d="M294.935 596.662H-0.0654907V894.996H294.935V596.662Z" fill="#233B99"/>
<path d="M-0.0654907 596.662L294.935 894.996H-0.0654907V596.662Z" fill="#CDDCEB"/>
<path opacity="0.1" d="M589.935 298.329H294.935V596.662H589.935V298.329Z" fill="white"/>
<path d="M294.935 -0.0043869H-0.0654907V298.329H294.935V-0.0043869Z" fill="#233B99"/>
<path d="M294.934 298.329C294.934 278.736 291.119 259.334 283.704 241.232C276.29 223.131 265.423 206.683 251.723 192.829C238.024 178.974 221.759 167.984 203.86 160.487C185.96 152.988 166.776 149.129 147.402 149.129C128.028 149.129 108.843 152.988 90.9437 160.487C73.0442 167.984 56.7803 178.974 43.0807 192.829C29.381 206.683 18.5139 223.131 11.0997 241.232C3.68548 259.334 -0.130556 278.736 -0.130554 298.329H147.402H294.934Z" fill="white" fill-opacity="0.12"/>
<path d="M294.934 -0.00437386C294.934 19.5888 291.119 38.99 283.704 57.0918C276.29 75.1935 265.423 91.6411 251.723 105.495C238.024 119.35 221.759 130.34 203.86 137.838C185.96 145.336 166.776 149.195 147.402 149.195C128.028 149.195 108.843 145.336 90.9437 137.838C73.0442 130.34 56.7803 119.35 43.0807 105.495C29.381 91.6411 18.5139 75.1935 11.0997 57.0918C3.68548 38.99 -0.130556 19.5888 -0.130554 -0.0043869L147.402 -0.00437386H294.934Z" fill="#CDDCEB"/>
<path d="M442.434 544.87C495.611 544.87 538.72 501.274 538.72 447.496C538.72 393.718 495.611 350.122 442.434 350.122C389.257 350.122 346.148 393.718 346.148 447.496C346.148 501.274 389.257 544.87 442.434 544.87Z" fill="#CDDCEB"/>
</g>
</g>
<defs>
<clipPath id="clip0_1_38">
<rect width="590" height="895" fill="white"/>
</clipPath>
</defs>
</svg>
